# xmcd CD database file
#
# Track frame offsets:
#	150
#	14592
#	38827
#	50005
#	63830
#	79375
#	92162
#	103267
#	115022
#	126460
#	140350
#	152177
#	164322
#	177655
#	193935
#	203927
#	219120
#	227842
#	243520
#	254332
#	263285
#	273777
#	284240
#	300667
#	310525
#
# Disc length: 4259 seconds
#
# Revision: 0
# Processed by: cddbd v1.5.1PL0 Copyright (c) Steve Scherf et al.
# Submitted via: CDex 1.51
#
DISCID=7010a119
DTITLE=Various Artist - Christmas
DYEAR=2005
DGENRE=Mix
TTITLE0=I´ll be Home For Christmas 
TTITLE1=Little Dummer boy
TTITLE2=Who Look the Merry Out of Christmas
TTITLE3=White Christmas
TTITLE4=Santa Baby
TTITLE5=Zat You, Santa Claus
TTITLE6=Little Brigth Star
TTITLE7=Jingel Bells
TTITLE8=Candeles Glowing
TTITLE9=White Christmas
TTITLE10=Christmas Everyday
TTITLE11=Santa Claus is Comming ´to Town
TTITLE12=Rudolph the Red-Nosed Reindeer
TTITLE13=Medly - Jingel Bells and Sliegh Ride 
TTITLE14=Winter Wonderland
TTITLE15=Sleigh Ride 
TTITLE16=Winter Wonderland
TTITLE17=Help Yourself a Mary Christmas
TTITLE18=Silver Bells
TTITLE19=Let it Snow, Let it Snow
TTITLE20=Santa Claus is Comming to Town
TTITLE21=Holliday for Bells
TTITLE22=Fröhliche Weihnacht (Medley)
TTITLE23=Jingo Jango
TTITLE24=Medley: Oh Wunder , Wenn der Schnee fällt 
EXTD=YEAR: 2005
EXTT0=
EXTT1=
EXTT2=
EXTT3=
EXTT4=
EXTT5=
EXTT6=
EXTT7=
EXTT8=
EXTT9=
EXTT10=
EXTT11=
EXTT12=
EXTT13=
EXTT14=
EXTT15=
EXTT16=
EXTT17=
EXTT18=
EXTT19=
EXTT20=
EXTT21=
EXTT22=
EXTT23=
EXTT24=
PLAYORDER=
